<?xml version="1.0" encoding="UTF-8" standalone="no"?><!DOCTYPE svg PUBLIC "-//W3C//DTD SVG 1.1//EN" "http://www.w3.org/Graphics/SVG/1.1/DTD/svg11.dtd"><svg width="100%" height="100%" viewBox="0 0 5867 5867" version="1.1" xmlns="http://www.w3.org/2000/svg" xmlns:xlink="http://www.w3.org/1999/xlink" xml:space="preserve" xmlns:serif="http://www.serif.com/" style="fill-rule:evenodd;clip-rule:evenodd;stroke-linejoin:round;stroke-miterlimit:2;"><path d="M1789.19,1722.06l0,-1062.42l1138.31,-659.635l1132.47,659.635l-0,1074.1l1634.49,-741.36l-1424.35,1056.58l881.459,513.698l0,1313.43l-1132.47,659.635l-893.134,-519.535l-192.637,1850.48l-192.636,-1856.32l-910.647,525.373l-1132.47,-659.635l-0,-1313.43l893.134,-519.535l-1418.51,-1050.75l1616.98,729.685Zm-87.562,402.786l-881.459,507.861l-0,1173.33l1009.88,583.748l898.972,-519.535l-64.213,-595.423c-159.557,-58.375 -288.955,-157.612 -388.192,-297.712c-99.237,-140.099 -148.856,-299.657 -148.856,-478.673l0,-52.537l-426.136,-321.062Zm2457.58,5.838l-420.299,315.224l0,52.537c0,179.016 -49.618,338.574 -148.855,478.673c-99.237,140.1 -226.689,239.337 -382.355,297.712l-64.212,607.098l875.621,507.86l1009.88,-583.748l0,-1173.33l-869.784,-502.023Zm531.211,682.985l233.499,-99.237l-0,1056.58l-910.647,502.023l-0,-251.012l677.148,-396.948l-0,-811.41Zm-3706.8,904.809l0,-1056.58l233.499,99.237l0,811.409l671.311,396.949l-0,251.012l-904.81,-502.024Zm2947.93,-1926.37l0,-1062.42l-1004.05,-583.748l-1009.88,583.748l-0,1050.75l402.786,186.8c163.449,-190.691 368.734,-286.037 615.854,-286.037c247.12,0 450.459,95.346 610.017,286.037l385.273,-175.125Zm-1897.18,-974.859l904.809,-513.698l893.134,525.373l-192.637,163.449l-706.335,-408.623l-694.66,367.761l-204.311,-134.262Z" style="fill-rule:nonzero;"/></svg>